<svg width="800" height="800" viewBox="0 0 800 800" fill="none" xmlns="http://www.w3.org/2000/svg">
<path d="M794.067 308.9L680 232.856V93.3262C680 88.6465 677.533 84.3121 673.533 81.8996L540.2 1.89961C535.973 -0.633203 530.694 -0.633203 526.467 1.89961L400 77.7793L273.533 1.89961C269.306 -0.633203 264.027 -0.633203 259.8 1.89961L126.467 81.8996C122.467 84.3121 120 88.6465 120 93.3262V232.857L5.93281 308.903C2.22656 311.382 0 315.542 0 319.996V479.996C0 484.464 2.22656 488.623 5.93281 491.09L120 567.134V706.661C120 711.34 122.467 715.687 126.467 718.101L259.8 798.101C261.92 799.368 264.294 799.995 266.667 799.995C269.041 799.995 271.414 799.368 273.534 798.101L400 722.22L526.467 798.1C528.587 799.367 530.961 799.993 533.334 799.993C535.708 799.993 538.081 799.367 540.202 798.1L673.534 718.1C677.534 715.686 680.002 711.34 680.002 706.659V567.131L794.069 491.087C797.775 488.62 800.002 484.461 800.002 479.993V319.993C800 315.54 797.773 311.379 794.067 308.9ZM400 544.446L302.575 485.992L280 472.447V327.553L280.656 327.159L400 255.553L519.344 327.159L520 327.553V472.447L497.425 485.992L400 544.446ZM533.333 28.873L653.333 100.887V232.447L533.333 304.447L413.333 232.447V100.887L533.333 28.873ZM146.667 100.887L266.667 28.873L386.667 100.887V232.447L266.667 304.447L146.667 232.447V100.887ZM26.6672 327.129L133.702 255.773L222.873 309.276L253.334 327.556V472.447L137.05 542.217L133.708 544.221L26.6672 472.862V327.129ZM266.667 771.114L146.667 699.114V567.556L266.669 495.554L386.667 567.553V699.112L266.667 771.114ZM533.333 771.114L413.333 699.114V567.554L533.333 495.554L653.333 567.554V699.114L533.333 771.114ZM773.333 472.861L666.292 544.22L547.439 472.911L546.666 472.447V327.553L666.292 255.779L773.333 327.139V472.861Z" fill="url(#paint0_linear_66_68)" fill-opacity="0.8"/>
<defs>
<linearGradient id="paint0_linear_66_68" x1="800.002" y1="399.997" x2="0" y2="399.997" gradientUnits="userSpaceOnUse">
<stop stop-color="#6EE7B7"/>
<stop offset="0.5" stop-color="#5EEAD4"/>
<stop offset="1" stop-color="#A5F3FC"/>
</linearGradient>
</defs>
</svg>
